<?xml version="1.0" encoding="UTF-8"?>
<svg id="Layer_2" data-name="Layer 2" xmlns="http://www.w3.org/2000/svg" viewBox="0 0 263.69 298.55">
  <defs>
    <style>
      .cls-1 {
        fill: #75b24d;
      }

      .cls-1, .cls-2 {
        stroke-width: 0px;
      }
    </style>
  </defs>
  <g id="Layer_1-2" data-name="Layer 1">
    <g>
      <path class="cls-1" d="M0,0s2.29,149.34,64.2,219.59c61.91,70.25,133.45-4.51,188.03,78.96h11.46s-26.01-29.93-41.73-46.32C186.04,214.78,219.44,49.76,0,0Z"/>
      <path class="cls-2" d="M255.9,296.58c-.46,0-.91-.21-1.21-.61-12.71-17.19-29.89-30.89-49.79-46.74-26.17-20.86-55.83-44.5-86.4-84.13C75.69,109.57,17.23,24.15,16.65,23.3c-.47-.68-.29-1.62.39-2.08.69-.47,1.62-.29,2.08.39.58.86,58.99,86.21,101.76,141.66,30.35,39.35,59.86,62.87,85.89,83.62,20.06,15.99,37.38,29.79,50.33,47.31.49.67.35,1.61-.31,2.1-.27.2-.58.29-.89.29Z"/>
      <path class="cls-2" d="M71.97,111.59c-26.91,0-59.73-42.22-61.23-44.18-.5-.66-.38-1.6.27-2.1.66-.5,1.6-.38,2.1.27.39.51,39.34,50.63,65.18,42.02.79-.26,1.64.16,1.9.95.26.79-.16,1.64-.95,1.9-2.35.78-4.79,1.14-7.27,1.14Z"/>
      <path class="cls-2" d="M104.84,146.09c-.14,0-.29-.02-.43-.06-.79-.24-1.24-1.07-1.01-1.87,14.53-48.43-45.62-110.39-46.23-111.01-.58-.59-.57-1.54.02-2.12.59-.58,1.54-.57,2.12.02.16.16,15.66,16.03,29.12,37.81,17.92,29.02,24.09,55.35,17.85,76.16-.19.65-.79,1.07-1.44,1.07Z"/>
      <path class="cls-2" d="M112.56,193.33c-12.75,0-26.54-4.79-40.85-14.32-18.18-12.1-31.02-27.78-31.15-27.94-.52-.64-.42-1.59.22-2.11.64-.52,1.59-.43,2.11.22.5.61,50.14,60.74,93.21,34.51.71-.43,1.63-.21,2.06.5.43.71.21,1.63-.5,2.06-7.75,4.72-16.18,7.07-25.11,7.07Z"/>
      <path class="cls-2" d="M174.35,223.57c-.07,0-.15,0-.22-.02-.82-.12-1.39-.88-1.26-1.7,7.05-47.47-29.79-112.23-30.16-112.88-.41-.72-.17-1.63.55-2.05.72-.41,1.64-.17,2.05.55.38.66,37.73,66.32,30.53,114.81-.11.74-.75,1.28-1.48,1.28Z"/>
      <path class="cls-2" d="M175.76,244.23c-46.77,0-72.63-16.01-72.92-16.2-.7-.44-.91-1.37-.46-2.07.44-.7,1.37-.91,2.07-.46.33.21,33.57,20.72,93.14,14.59.82-.09,1.56.51,1.65,1.34.08.82-.51,1.56-1.34,1.65-7.82.8-15.21,1.16-22.13,1.16Z"/>
    </g>
  </g>
</svg>