<?xml version="1.0" encoding="UTF-8"?>
<svg id="Layer_2" data-name="Layer 2" xmlns="http://www.w3.org/2000/svg" viewBox="0 0 186.23 406.6">
  <defs>
    <style>
      .cls-1, .cls-2 {
        stroke-width: 0px;
      }

      .cls-2 {
        fill: #4a752f;
      }
    </style>
  </defs>
  <g id="Layer_1-2" data-name="Layer 1">
    <g>
      <path class="cls-2" d="M183.59,240.16c3.39,7.33-47.94,46.41-43.15,51.71,4.78,5.29,12.76-2.07,19.5,1.58,17.55,9.5-46.86,55.14-76.7,51.51-30.04,1.21-82.01-48.91-63.75-56.96,7.01-3.09,14.37,4.89,19.57,0,5.19-4.89-42.81-48-38.83-55.03,3.97-7.03,11.31,4.28,17.73,1.22S-3.44,197.2,1.76,186.8c5.2-10.39,14.06,12.23,21.7,8.26,7.65-3.98-21.09-34.24-16.2-45.25,4.89-11.01,11.01,3.36,17.12,0,6.12-3.36-9.78-42.8-.92-52.59,8.87-9.78,10.71,9.48,15.9,8.26,5.2-1.23-7.11-33.94,2.26-40.05,9.36-6.12,11.81,13.75,18.84,9.17,7.03-4.59-6.57-38.57,7.34-44.03,4.69-1.84,6.13,9.85,14.39,9.23,8.25-.61,5.17-39.8,19.85-39.8,14.63,1.19,7.32,39.72,15.5,40.99,8.17,1.28,10.56-10.25,15.09-8.03,13.42,6.56-2.89,39.33,3.75,44.47,6.63,5.14,10.68-14.47,19.52-7.61,8.84,6.85-6.08,38.46-1,40.1,5.08,1.64,8.47-17.41,16.52-6.94,8.04,10.47-11,48.49-5.17,52.34,5.82,3.84,13.08-9.98,17.06,1.38,3.99,11.37-27.11,39.21-19.81,43.79,7.3,4.58,17.96-17.25,22.3-6.47,4.34,10.78-26.13,42.35-19.98,45.92s14.38-7.11,17.77.22Z"/>
      <path class="cls-1" d="M77.28,406.6c-.11,0-.21-.01-.32-.03-.81-.17-1.33-.97-1.15-1.78,21.73-100.87,21.98-358.02,21.98-360.6,0-.83.67-1.5,1.5-1.5s1.5.67,1.5,1.5c0,2.59-.25,260.06-22.05,361.23-.15.7-.77,1.18-1.46,1.18Z"/>
      <path class="cls-1" d="M98.63,139.4l-1.15-.42c-21.87-7.89-25.23-74.63-25.36-77.47-.04-.83.6-1.53,1.43-1.57.86-.03,1.53.6,1.57,1.43.03.66,3.26,65.02,22.25,74.3,3.5-6.04,19.95-35.88,23.98-68.91.1-.82.85-1.41,1.67-1.31.82.1,1.41.85,1.31,1.67-4.57,37.5-24.85,70.89-25.06,71.23l-.64,1.04Z"/>
      <path class="cls-1" d="M96.2,190.75c-.33,0-.67-.11-.95-.34-18.98-15.59-50.65-70.83-51.99-73.18-.41-.72-.16-1.64.56-2.05.72-.41,1.63-.16,2.05.56.33.57,32.73,57.11,51.29,72.35.64.53.73,1.47.21,2.11-.3.36-.73.55-1.16.55Z"/>
      <path class="cls-1" d="M96.2,212.46c-.42,0-.84-.18-1.14-.52-.54-.63-.47-1.57.15-2.12,32.95-28.49,55.07-77.26,55.29-77.75.34-.76,1.22-1.09,1.98-.75.76.34,1.09,1.23.75,1.98-.22.5-22.6,49.86-56.06,78.79-.28.25-.63.37-.98.37Z"/>
      <path class="cls-1" d="M94.46,242.88c-.19,0-.38-.04-.57-.11-28.25-11.68-58.4-69.73-59.67-72.2-.38-.74-.09-1.64.65-2.02.74-.38,1.64-.09,2.02.65.31.59,30.92,59.55,58.15,70.8.77.32,1.13,1.19.81,1.96-.24.58-.8.93-1.39.93Z"/>
      <path class="cls-1" d="M93.12,261.82c-.52,0-1.03-.27-1.3-.76-.41-.72-.16-1.64.56-2.05,37.32-21.22,63.38-77.17,63.64-77.74.34-.75,1.24-1.08,1.99-.74.75.35,1.08,1.24.74,1.99-.26.57-26.72,57.4-64.89,79.09-.23.13-.49.2-.74.2Z"/>
      <path class="cls-1" d="M89.94,290.11c-.27,0-.54-.07-.79-.22-33.73-20.77-57.92-67.69-58.16-68.16-.38-.74-.08-1.64.65-2.02.74-.38,1.64-.08,2.02.66.24.46,24.05,46.65,57.06,66.97.71.43.93,1.36.49,2.06-.28.46-.78.71-1.28.71Z"/>
      <path class="cls-1" d="M89.94,314.22c-.47,0-.93-.22-1.22-.63-.48-.67-.33-1.61.35-2.09.39-.28,39.18-28.32,55.33-63.31.35-.75,1.23-1.08,1.99-.73.75.35,1.08,1.24.73,1.99-16.48,35.72-55.91,64.21-56.31,64.49-.26.19-.57.28-.87.28Z"/>
      <path class="cls-1" d="M88.37,328.16c-.09,0-.18,0-.28-.03-19.89-3.69-39.29-22.95-40.11-23.77-.58-.59-.58-1.54,0-2.12.59-.58,1.54-.58,2.12,0,.19.19,19.57,19.42,38.53,22.94.81.15,1.35.93,1.2,1.75-.13.72-.76,1.23-1.47,1.23Z"/>
    </g>
  </g>
</svg>