<?xml version="1.0" encoding="UTF-8"?>
<svg id="Layer_2" data-name="Layer 2" xmlns="http://www.w3.org/2000/svg" viewBox="0 0 189.02 357.92">
  <defs>
    <style>
      .cls-1 {
        fill: #75b24d;
      }

      .cls-1, .cls-2 {
        stroke-width: 0px;
      }
    </style>
  </defs>
  <g id="Layer_1-2" data-name="Layer 1">
    <g>
      <path class="cls-1" d="M138.92,279.28c-.05,1.48-2.01,1.93-2.71.63-5.09-9.53-18.22-23.43-50.91-19.42C36.69,266.45,11.01,208.66,0,181.61c0,0,8.48-2.75,25.45,0,0,0-27.52-20.41-18.34-75.21,0,0,11.46-.46,19.72,7.11,0,0-25.45-12.6,16.28-113.5,0,0,60.54,35.31,60.99,63.75,0,0,1.83-13.76,11.46-19.72,0,0,27.06,23.39,20.64,65.58,0,0,5.2-13.91,13.91-20.33,0,0,23.24,24.69,21.86,60.69,0,0,6.48-8.03,16.05-11.46,0,0,7.8,66.5-20.18,95.39-23.01,23.77-28.54,32.74-28.93,45.39Z"/>
      <path class="cls-2" d="M157.76,357.92c-1.04,0-2-.65-2.36-1.68-.08-.23-7.97-23.16-19.79-72.23-8.33-34.59-11.59-43.65-21.3-70.54-4.28-11.87-9.61-26.65-17.16-48.46C72.22,92.9,44.23,10.34,43.95,9.52c-.44-1.31.26-2.73,1.57-3.17,1.31-.44,2.73.26,3.17,1.57.28.83,28.26,83.38,53.19,155.45,7.54,21.78,12.86,36.54,17.14,48.4,9.77,27.09,13.06,36.21,21.46,71.07,11.75,48.8,19.57,71.54,19.65,71.77.45,1.3-.24,2.73-1.54,3.18-.27.09-.55.14-.82.14Z"/>
      <g>
        <path class="cls-2" d="M130.3,254.3c-.07,0-.14,0-.21-.02-.37-.08-36.79-7.84-54.32-11.61-17.55-3.78-36.84-8.83-37.04-8.88-.53-.14-.85-.69-.71-1.22.14-.54.69-.85,1.22-.71.19.05,19.45,5.08,36.95,8.86,10.97,2.36,29.34,6.29,41.64,8.91-11.53-4.55-28.41-11.68-37.51-17.65-14.89-9.77-63.38-39.86-69.95-43.53-.48-.27-.66-.88-.39-1.36.27-.48.88-.65,1.36-.39,6.59,3.68,55.17,33.82,70.07,43.6,14.41,9.45,48.87,21.93,49.22,22.06.5.18.77.71.62,1.21-.12.44-.52.73-.96.73Z"/>
        <path class="cls-2" d="M121.67,227.57c-.15,0-.3-.03-.45-.11-.38-.19-38.26-19.18-61.91-26.87-23.97-7.79-28.23-12.16-28.4-12.35-.38-.41-.35-1.04.05-1.41.4-.38,1.04-.35,1.41.05.03.03,4.4,4.28,27.55,11.81,15.98,5.19,38.36,15.49,51.46,21.75-15.53-11.02-45.87-32.16-61.87-40.71-22.3-11.91-34.96-32.41-35.08-32.62-.29-.47-.14-1.09.33-1.37.47-.29,1.09-.14,1.37.33.12.2,12.51,20.24,34.32,31.89,22.12,11.82,71.3,47.43,71.8,47.78.42.31.54.88.27,1.33-.19.31-.52.48-.86.48Z"/>
        <path class="cls-2" d="M109.43,193.44c-.07,0-.14,0-.21-.02-1.19-.26-29.17-6.47-38.76-18.53-9.91-12.47-19.02-21.06-34.82-32.84-16.85-12.56-22.86-27.77-23.11-28.42-.2-.51.06-1.09.57-1.29.51-.2,1.09.06,1.29.57.06.15,6.08,15.33,22.44,27.53,15.95,11.89,25.16,20.58,35.19,33.2,9.15,11.5,37.34,17.76,37.62,17.82.54.12.88.65.76,1.19-.1.47-.52.79-.98.79Z"/>
        <path class="cls-2" d="M100.43,167.83c-.26,0-.53-.1-.72-.31-.32-.33-31.82-33.16-53.94-47.75-22.71-14.98-22.04-26.42-22-26.9.05-.55.52-.96,1.08-.92.55.05.96.52.92,1.07,0,.17-.38,10.9,21.11,25.08,14.12,9.32,31.98,25.95,43.28,36.99-11.04-14.35-29.07-37.81-39.57-51.44-15.25-19.8-21.44-36.55-19.46-52.71.07-.55.56-.95,1.11-.87.55.07.94.57.87,1.11-1.91,15.6,4.15,31.88,19.06,51.24,15.9,20.64,49.07,63.8,49.07,63.8.32.42.26,1.02-.14,1.37-.19.16-.42.24-.65.24Z"/>
        <path class="cls-2" d="M76.33,97.77c-.27,0-.53-.11-.73-.32-20.71-22.1-39.48-61.77-39.66-62.17-.23-.5-.02-1.1.48-1.33.5-.24,1.09-.02,1.33.48.19.4,18.82,39.78,39.31,61.66.38.4.36,1.04-.05,1.41-.19.18-.44.27-.68.27Z"/>
        <path class="cls-2" d="M75.09,94.14c-.05,0-.11,0-.17-.01-.43-.07-.76-.42-.82-.85-.16-1.18-3.93-29.14.07-41.89,3.83-12.22,0-24.21-.03-24.33-.17-.53.12-1.09.64-1.26.53-.17,1.09.12,1.26.64.17.51,4.06,12.71.04,25.55-3.07,9.8-1.28,29.74-.4,37.67,3.92-8.27,14.14-31.37,12.21-43.31-.09-.54.28-1.06.83-1.15.54-.09,1.06.28,1.15.83,2.47,15.28-13.22,46.26-13.88,47.57-.17.34-.52.55-.89.55Z"/>
        <path class="cls-2" d="M92.18,139.27c-.52,0-.96-.4-1-.93-.06-.76-1.34-18.77,3.05-32.26,4.28-13.16,5.2-40.27,5.2-40.54.02-.55.46-1,1.03-.97.55.02.99.48.97,1.03-.04,1.12-.93,27.66-5.3,41.09-4.27,13.1-2.97,31.31-2.96,31.49.04.55-.37,1.03-.92,1.07-.03,0-.05,0-.08,0Z"/>
        <path class="cls-2" d="M103.01,175.25c-.09,0-.19-.01-.29-.04-.48-.14-.78-.62-.7-1.12.06-.34,5.6-34.21,11.35-54.81,5.69-20.37,1.99-56.89,1.96-57.26-.06-.55.34-1.04.89-1.1.56-.05,1.04.34,1.1.89.16,1.51,3.77,37.27-2.02,58-4.07,14.56-8.04,35.82-10.01,47.03,5.76-12.36,17.85-37.2,24.75-43.17.42-.36,1.05-.32,1.41.1.36.42.32,1.05-.1,1.41-8.75,7.56-27.24,49.04-27.43,49.46-.16.37-.53.59-.91.59Z"/>
        <path class="cls-2" d="M114.98,208.94c-.24,0-.48-.09-.66-.25-.28-.24-.4-.62-.31-.97,2.76-12.09,12.57-37.74,20.81-58.73,7.98-20.33,14.26-47.89,14.32-48.16.12-.54.66-.87,1.2-.75.54.12.88.66.75,1.2-.06.28-6.38,27.98-14.41,48.45-7.8,19.87-17.01,43.92-20.26,56.54,5.64-2.53,22.91-11.57,26.6-28.83,4.88-22.77,9.12-37.86,16.38-47.62.33-.44.96-.53,1.4-.21.44.33.54.96.21,1.4-7.04,9.47-11.21,24.35-16.03,46.85-4.65,21.69-28.64,30.67-29.66,31.04-.11.04-.23.06-.34.06Z"/>
        <path class="cls-2" d="M131.62,253.38c-.26,0-.52-.1-.71-.3-.34-.35-.38-.89-.1-1.29.18-.26,18.46-25.83,18.61-46.81.15-21.59,16.87-47.88,17.58-48.99.3-.47.92-.6,1.38-.3.46.3.6.92.3,1.38-.17.27-17.12,26.91-17.27,47.92-.11,16.05-10.1,34.11-15.55,42.79,7.08-5.91,19.9-18.14,24.14-32.23,6.06-20.14,21.12-58.25,21.28-58.63.2-.51.79-.76,1.3-.56.51.2.76.78.56,1.3-.15.38-15.19,38.41-21.22,58.47-6.14,20.43-28.78,36.4-29.74,37.07-.17.12-.37.18-.57.18Z"/>
      </g>
    </g>
  </g>
</svg>